<svg xmlns="http://www.w3.org/2000/svg"><defs><symbol id="icon-close" viewBox="0 0 20 20"><path d="M10 8.586 2.929 1.515 1.515 2.929 8.586 10l-7.071 7.071 1.414 1.414L10 11.414l7.071 7.071 1.414-1.414L11.414 10l7.071-7.071-1.414-1.414L10 8.586z"/></symbol><symbol id="icon-heart" viewBox="0 0 20 20"><path d="m10 3.22-.61-.6a5.5 5.5 0 0 0-7.778 7.772l-.002-.003 8.39 8.39 8.39-8.4a5.5 5.5 0 0 0-7.783-7.768l.003-.002-.61.61z"/></symbol><symbol id="icon-film" viewBox="0 0 24 24"><path d="M16 11H8V3h8zm-8 2h8v8H8zM6 6H3V4.18c0-.326.131-.62.346-.834S3.854 3 4.18 3H6zM3 8h3v3H3zm3 8H3v-3h3zm-3 2h3v3H4.18c-.326 0-.62-.131-.834-.346S3 20.146 3 19.82zm18-2h-3v-3h3zm-3 2h3v1.82c0 .326-.131.62-.346.834s-.508.346-.834.346H18zm3-12h-3V3h1.82c.326 0 .62.131.834.346s.346.508.346.834zm2 1V4.18A3.176 3.176 0 0 0 19.82 1H4.18A3.176 3.176 0 0 0 1 4.18v15.64A3.176 3.176 0 0 0 4.18 23h15.64A3.176 3.176 0 0 0 23 19.82zm-5 1h3v3h-3z"/></symbol><symbol id="icon-search" viewBox="0 0 16 16"><path d="M15.56 15.56a1.502 1.502 0 0 1-2.125 0l-2.652-2.652a6.96 6.96 0 0 1-3.771 1.116 7.012 7.012 0 1 1 7.012-7.012c0 1.391-.417 2.68-1.116 3.771l2.652 2.652a1.502 1.502 0 0 1 0 2.125zM7.012 2.003a5.009 5.009 0 1 0 0 10.018 5.009 5.009 0 0 0 0-10.018z"/></symbol><symbol id="icon-anchor" viewBox="0 0 32 32"><path d="M15.613 7.544c-.155.075-8.584 8.512-8.64 8.648-.048.117-.051.235-.011.381.024.085.131.211.568.648.293.299.581.565.635.595.123.064.363.067.483.008.048-.024 1.685-1.64 3.637-3.592l3.555-3.552 3.552 3.552c2.523 2.523 3.584 3.565 3.653 3.595.128.053.347.051.456-.003.117-.059 1.131-1.067 1.195-1.189.061-.12.067-.331.011-.469-.029-.069-1.256-1.312-4.235-4.293-2.307-2.309-4.245-4.235-4.312-4.28-.155-.107-.381-.128-.547-.048z"/><path d="M15.613 14.397c-.075.035-1.403 1.349-4.365 4.312-4.509 4.517-4.315 4.312-4.315 4.544 0 .205.045.264.597.821.64.648.739.709 1.024.643.12-.029.309-.213 3.707-3.608l3.579-3.576 3.555 3.552c1.952 1.952 3.589 3.568 3.632 3.589.136.067.259.075.411.029.128-.037.189-.088.621-.512.603-.595.669-.68.683-.899.008-.131 0-.189-.048-.283-.088-.179-8.448-8.536-8.613-8.608-.149-.069-.328-.069-.467-.005z"/><path d="M13.232 22.699c.008 1.205.008 1.208.072 1.368.088.219.331.461.549.549.139.053.205.061.507.061.296 0 .368-.008.493-.059.296-.117.477-.304.595-.613.053-.147.056-.2.067-1.333l.008-1.179h-.589v1.061c0 1.165-.011 1.261-.152 1.397-.203.195-.616.208-.816.027-.136-.123-.139-.128-.152-1.339l-.013-1.133-.576-.016.008 1.208zm2.928.381v1.587h.587V23.44h.421c.456 0 .621-.029.816-.144.317-.187.488-.584.421-.989-.072-.443-.349-.712-.805-.784-.096-.016-.459-.029-.805-.029h-.635v1.587zm1.456-.957c.091.043.197.216.197.323 0 .128-.04.232-.12.317l-.085.091h-.861v-.773h.389c.301 0 .411.011.48.043z"/></symbol><symbol xmlns="http://www.w3.org/2000/svg" xmlns:xlink="http://www.w3.org/1999/xlink" xml:space="preserve" id="linkedin" viewBox="0 0 512 512"><path fill="#1976d2" d="M0 160h114.5v352H0zm426.4 4.1-3.7-1.1-4.6-1c-6.1-1.1-12.8-2-20.6-2-66.7 0-109 48.5-123 67.3V160H160v352h114.5V320s86.5-120.5 123-32v224H512V274.5c0-53.2-36.4-97.5-85.6-110.4z"/><circle cx="56" cy="56" r="56" fill="#1976d2"/></symbol><symbol xmlns="http://www.w3.org/2000/svg" id="gmail" viewBox="0 0 100 100"><path d="M71.5 87c-3.6 0-6.5-3-6.5-6.5v-16l-9.1 6.9a6.5 6.5 0 0 1-7.8 0L39 64.6v15.9c0 3.6-3 6.5-6.5 6.5H19.9C13.3 87 8 81.7 8 75.1v-44a14.3 14.3 0 0 1 22.8-11.4l21.2 16 21.2-16A14.3 14.3 0 0 1 96 31v44c0 6.7-5.3 12-11.9 12H71.5z" opacity=".3"/><path fill="#f2f2f2" d="M69.5 85c-3.6 0-6.5-3-6.5-6.5v-16l-9.1 6.9a6.5 6.5 0 0 1-7.8 0L37 62.6v15.9c0 3.6-3 6.5-6.5 6.5H17.9C11.3 85 6 79.7 6 73.1v-44a14.3 14.3 0 0 1 22.8-11.4l21.2 16 21.2-16A14.3 14.3 0 0 1 94 29v44c0 6.7-5.3 12-11.9 12H69.5z"/><path fill="#96c362" d="m87.5 36-9 5-9 8.4v29.1h12.6c3 0 5.4-2.4 5.4-5.4V36z"/><path fill="#70bfff" d="m12.5 36 6.5 3 11.5 10.4v29.1H17.9c-3 0-5.4-2.4-5.4-5.4V36z"/><path fill="#ff7575" d="M69.6 27.1 50 41.9 30.4 27.1l-1.8 10.4 1.8 12L50 64.2l19.6-14.7 1.8-12z"/><path fill="#f4665c" d="M12.5 29v7l18 13.6V27l-5.6-4.2A7.7 7.7 0 0 0 12.5 29z"/><path fill="#ffc571" d="M87.5 29v7l-18 13.6V27l5.6-4.2A7.7 7.7 0 0 1 87.5 29z"/><path fill="#40396e" d="M82.1 80H69.5c-.8 0-1.5-.7-1.5-1.5v-26l-17.1 13c-.5.4-1.3.4-1.8 0L32 52.6v25.9c0 .8-.7 1.5-1.5 1.5H17.9C14 80 11 77 11 73.1v-44a9.2 9.2 0 0 1 14.8-7.4L50 40l24.2-18.3A9.2 9.2 0 0 1 89 29v44c0 3.8-3 6.9-6.9 6.9zM71 77h11.1c2.2 0 3.9-1.7 3.9-3.9v-44a6.2 6.2 0 0 0-10-5L51 43c-.6.4-1.4.4-2 0L24 24a6.2 6.2 0 0 0-10 5v44c0 2.2 1.7 3.9 3.9 3.9H29V49.6a1.5 1.5 0 0 1 2.4-1.2l18.6 14 18.6-14a1.5 1.5 0 0 1 2.4 1.2V77z"/></symbol><symbol xmlns="http://www.w3.org/2000/svg" id="github" viewBox="0 0 128 128"><g fill="#181616"><path fill-rule="evenodd" d="M64 1.5a42.5 42.5 0 0 0-13.5 83c2.2.3 3-1 3-2.1l-.1-8c-11.8 2.6-14.3-5-14.3-5-2-4.9-4.8-6.2-4.8-6.2-3.8-2.6.3-2.6.3-2.6 4.3.3 6.6 4.4 6.6 4.4 3.7 6.5 10 4.6 12.3 3.5a9 9 0 0 1 2.7-5.6C46.8 61.8 37 58 37 41.9c0-4.7 1.6-8.5 4.3-11.5-.4-1-1.9-5.4.4-11.2 0 0 3.6-1.2 11.7 4.3a40.8 40.8 0 0 1 21.4 0c8-5.5 11.6-4.3 11.6-4.3 2.4 5.8.9 10.1.5 11.2 2.7 3 4.3 6.8 4.3 11.4 0 16.4-10 20-19.4 21 1.5 1.3 2.9 4 2.9 7.9v11.7c0 1.1.7 2.4 2.9 2A42.5 42.5 0 0 0 64 1.5z" clip-rule="evenodd"/><path d="M37.6 62.6c-.1.2-.5.3-.8.1-.3-.1-.4-.4-.3-.6 0-.2.4-.3.7-.1.3 0 .5.4.4.6zm1.7 1.9c-.2.2-.6.1-.9-.2-.3-.3-.3-.7-.1-.9.2-.1.6 0 .9.2.2.3.3.7 0 1zm1.6 2.5c-.2.2-.6 0-.9-.4-.2-.4-.2-.8 0-1 .3-.2.7 0 1 .3.2.4.2.9 0 1zm2.4 2.3c-.3.3-.8.2-1.1-.1-.4-.4-.5-.9-.3-1.1.3-.3.8-.2 1.1.1.4.4.5.9.3 1.1zm3.1 1.4c0 .3-.5.5-1 .4-.5-.2-.8-.6-.7-1 0-.3.6-.4 1-.3.5.2.8.6.7 1zm3.5.3c0 .3-.4.6-.9.6s-.9-.3-1-.6c0-.4.5-.6 1-.7.5 0 1 .3 1 .7zm3.3-.6c0 .4-.3.7-.8.8-.5 0-1-.1-1-.5-.1-.3.2-.7.7-.8.5 0 1 .2 1 .5zm0 0"/></g><path fill="#100E0F" d="M24.9 108.3H14.2a.5.5 0 0 0-.5.5v5.2a.5.5 0 0 0 .5.5h4.1v6.5s-1 .4-3.5.4c-3 0-7.3-1.2-7.3-10.6 0-9.3 4.4-10.6 8.6-10.6 3.6 0 5.2.7 6.2 1 .3 0 .6-.3.6-.5l1.2-5a.5.5 0 0 0-.2-.5c-.4-.3-2.9-1.6-9.1-1.6-7.1 0-14.5 3-14.5 17.6 0 14.6 8.4 16.8 15.5 16.8 5.8 0 9.4-2.5 9.4-2.5l.2-.4v-16.3a.5.5 0 0 0-.5-.5zm54.6-13.5h-6a.5.5 0 0 0-.5.5V107h-9.4V95.3a.5.5 0 0 0-.5-.5h-6a.5.5 0 0 0-.5.5v31.5c0 .3.2.5.5.5h6a.5.5 0 0 0 .5-.5v-13.4H73v13.4c0 .3.2.5.5.5h6a.5.5 0 0 0 .5-.5V95.3c0-.3-.2-.5-.5-.5zm-47.2.7a3.9 3.9 0 0 0-3.8 4 4 4 0 0 0 3.8 3.9 4 4 0 0 0 4-4 4 4 0 0 0-4-3.9zm3 9.6h-6c-.3 0-.5.3-.5.6v20.8c0 .7.3.8.8.8h5.5c.5 0 .7-.2.7-.8v-20.9a.5.5 0 0 0-.5-.5zm67.6 0h-6a.5.5 0 0 0-.5.6V121s-1.5 1.2-3.6 1.2-2.8-1-2.8-3.1v-13.5a.5.5 0 0 0-.5-.5h-6a.5.5 0 0 0-.5.5v14.5c0 6.3 3.5 7.8 8.3 7.8 4 0 7-2.2 7-2.2l.3 1.3.4.3h4a.5.5 0 0 0 .4-.6v-21.1a.5.5 0 0 0-.5-.5zm16.3-.6c-3.4 0-5.7 1.5-5.7 1.5V95.3a.5.5 0 0 0-.5-.5h-6a.5.5 0 0 0-.5.5v31.5a.5.5 0 0 0 .5.5h4.2c.2 0 .3 0 .4-.2l.3-1.5s2.5 2.4 7.1 2.4c5.5 0 8.7-2.8 8.7-12.5s-5-11-8.5-11zm-2.3 17.7c-2 0-3.5-1-3.5-1v-10s1.4-.8 3-1c2.2-.1 4.3.5 4.3 5.6 0 5.5-1 6.5-3.8 6.4zm-63.7 0h-1.6c-2.3 0-3-1-3-2.3v-9H53a.5.5 0 0 0 .5-.4v-4.9a.5.5 0 0 0-.5-.5h-4.5v-6c0-.2-.1-.3-.4-.3H42c-.2 0-.3.1-.3.4v6.1l-3.3.8a.5.5 0 0 0-.4.5v3.9a.5.5 0 0 0 .5.5h3.2v9.3c0 7 4.8 7.6 8.1 7.6 1.5 0 3.3-.5 3.6-.6.2 0 .3-.2.3-.4v-4.3a.5.5 0 0 0-.5-.5z"/></symbol><symbol xmlns="http://www.w3.org/2000/svg" xmlns:xlink="http://www.w3.org/1999/xlink" xml:space="preserve" id="telegram" viewBox="0 0 512 512"><circle cx="256" cy="256" r="256" fill="#7aa5da"/><path fill="#5786b5" d="M512 250 398.2 136.7l-185 225.6 133.3 133.2a256 256 0 0 0 165.4-245.4z"/><path fill="#fff" d="M383.7 133.5c10.2-4 20.8 5 18.5 15.7L356.5 368a14.4 14.4 0 0 1-22.7 8.6l-69-50.7-35.3 36a11.7 11.7 0 0 1-19.5-4.7l-25.4-80.6-68.1-20.2c-9-2.6-9.5-15-.8-18.4l268-104.5zm-33.6 48.6c3-2.7-.5-7.3-3.8-5.2l-147 91.2a6.7 6.7 0 0 0-3 7.6l20.1 88c.4 1.4 2.4 1.2 2.5-.2l4.5-67c.2-1.7 1-3.2 2.2-4.3L350.1 182z"/><path fill="#9ec2e5" d="M346.3 176.9c3.3-2.1 6.8 2.5 3.8 5.2L225.6 292a6.6 6.6 0 0 0-2.2 4.3l-4.5 67.1c-.1 1.4-2 1.6-2.5.3l-20-88c-1-3 .3-6.1 2.8-7.7l147-91.2z"/><path fill="#fff" d="M217.2 364.7c-3.3-1.2-6-3.8-7.2-7.5l-25.4-80.6-68.1-20.2c-9-2.6-9.5-15-.8-18.4l268-104.5a13.7 13.7 0 0 1 14.5 2.9L216.3 284.8v6.5l-1-.7 1 41v32.7l.9.3z"/><path fill="#d1d1d1" d="M402.5 145.5c0 1.2 0 2.4-.3 3.7L356.5 368a14.4 14.4 0 0 1-22.7 8.6l-69-50.7-48.5-34.6v-6.5l181.9-148.4a14.4 14.4 0 0 1 2.5 3.2l.4.6.3.6.2.6.3.7a13.7 13.7 0 0 1 .6 3.4z"/><path fill="#d1d1d1" d="m264.7 326-35.2 35.9a13.9 13.9 0 0 1-1.8 1.5c-.7.5-1.4.8-2.1 1.1l-1 .4a11.7 11.7 0 0 1-5.8.2h-.1a27 27 0 0 1-1.5-.5l-.9-33v-40.3l48.4 34.6z"/><path fill="#dadde0" d="m228.6 362.7-1 .8 1-.8zm-.9.7zm-2.1 1.1zm-5.6.8z"/><path fill="#fff" d="M221.2 365.4zm-1.2-.1h.2a6.7 6.7 0 0 1-.2 0z"/><path fill="#dadde0" d="M220 365.3zm-2.5-.5 1.2.3h-.5l-.2-.2-.5-.1z"/><path fill="#fff" d="m218.2 365 .5.1h-.5zm-.7-.2.5.1-.8-.2h.3z"/><path fill="#dadde0" d="m217.5 364.8-.3-.1h.3z"/><path fill="#d1d1d1" d="m216.3 331.5.9 33.1-.9-.3v-32.8z"/><path fill="#dadde0" d="M216.3 291.3v40.2l-1-40.9z"/><path fill="#adbcc9" d="M350.1 182 225.6 292.3a6.6 6.6 0 0 0-2.2 4.2l-4.5 67.1c-.1 1.4-2 1.6-2.5.3l-20-88c-1-3 .3-6.1 2.8-7.7l147-91.2c3.4-2.1 6.9 2.5 4 5.2z"/></symbol><symbol id="icon-earth" viewBox="0 0 32 32">
<path d="M14.637 0.188c-0.925 0.244-1.9 0.831-2.787 1.688-1.338 1.281-2.513 3.213-3.281 5.394l-0.181 0.525 0.744 0.2c0.975 0.262 2.438 0.531 3.525 0.662 0.925 0.106 2.531 0.213 2.613 0.175 0.025-0.012 0.044-1.994 0.044-4.4 0-4.119-0.006-4.369-0.106-4.362-0.063 0-0.319 0.056-0.569 0.119zM16.688 4.431c0 2.406 0.019 4.388 0.050 4.4 0.075 0.037 1.731-0.075 2.606-0.175 1.038-0.125 2.625-0.419 3.469-0.65 0.788-0.213 0.769-0.15 0.344-1.231-1.456-3.737-3.75-6.181-6.262-6.681l-0.206-0.044v4.381zM21.419 1.269c1.375 1.45 2.525 3.469 3.425 6.025 0.031 0.094 0.294 0 1.394-0.494 0.738-0.331 1.95-1.019 1.95-1.106 0-0.025-0.269-0.331-0.594-0.681-1.288-1.362-2.825-2.5-4.519-3.35-0.494-0.244-1.95-0.85-2.050-0.85-0.025 0 0.156 0.206 0.394 0.456zM9.994 1.181c-2.094 0.863-4.081 2.225-5.6 3.85-0.319 0.338-0.581 0.638-0.581 0.662 0 0.063 0.912 0.606 1.531 0.912 0.8 0.4 1.656 0.731 1.712 0.669 0.025-0.031 0.112-0.237 0.194-0.463 0.725-2.006 1.85-3.987 3.006-5.287 0.563-0.625 0.581-0.65 0.519-0.644-0.031 0-0.381 0.137-0.781 0.3zM2.506 7.438c-1.469 2.319-2.3 4.919-2.481 7.762l-0.037 0.675h5.688l0.037-0.8c0.094-2.006 0.356-4.006 0.731-5.55 0.106-0.438 0.169-0.813 0.138-0.838-0.025-0.031-0.269-0.137-0.531-0.244-0.662-0.262-2.025-0.95-2.619-1.325-0.269-0.169-0.5-0.306-0.506-0.306-0.013 0-0.2 0.281-0.419 0.625zM28.544 7.131c-0.575 0.369-1.981 1.075-2.712 1.369-0.288 0.113-0.519 0.238-0.519 0.281s0.081 0.425 0.181 0.85c0.375 1.563 0.694 3.987 0.694 5.25 0 0.331 0.019 0.694 0.038 0.8l0.044 0.194h5.744l-0.038-0.675c-0.15-2.313-0.675-4.325-1.663-6.287-0.387-0.775-1.181-2.1-1.25-2.094-0.019 0-0.25 0.144-0.519 0.313zM7.969 9.213c-0.013 0.037-0.094 0.394-0.181 0.787-0.338 1.5-0.556 3.175-0.631 4.925l-0.044 0.95 8.169-0.031v-5.563l-0.925-0.044c-1.762-0.088-3.919-0.425-5.594-0.881-0.512-0.144-0.781-0.188-0.794-0.144zM23.125 9.381c-1.488 0.412-3.837 0.775-5.5 0.856l-0.906 0.044v5.563h8.063l-0.019-0.813c-0.044-1.725-0.425-4.481-0.8-5.737-0.044-0.137-0.050-0.131-0.837 0.088zM0.063 17.387c0 0.044 0.044 0.375 0.087 0.738 0.306 2.269 1.163 4.594 2.394 6.5 0.194 0.294 0.356 0.538 0.362 0.55 0.013 0.012 0.244-0.119 0.519-0.294 0.6-0.375 1.962-1.063 2.625-1.325 0.263-0.106 0.506-0.212 0.531-0.238s-0.025-0.356-0.112-0.731c-0.35-1.45-0.612-3.194-0.694-4.55l-0.044-0.725h-2.831c-2.231 0-2.837 0.019-2.837 0.075zM7.2 17.981c0.063 0.894 0.156 1.7 0.306 2.613 0.119 0.706 0.419 2.144 0.469 2.225 0.013 0.019 0.369-0.056 0.788-0.175 1.675-0.456 3.787-0.788 5.581-0.881l0.938-0.044 0.019-2.206 0.012-2.2h-8.162l0.050 0.669zM16.7 19.512l0.019 2.206 0.894 0.044c1.656 0.075 3.831 0.413 5.438 0.837 0.456 0.119 0.85 0.206 0.881 0.188 0.025-0.019 0.069-0.125 0.087-0.238 0.025-0.113 0.125-0.613 0.231-1.113 0.2-0.981 0.406-2.469 0.469-3.488l0.044-0.637h-8.075l0.012 2.2zM26.156 17.919c-0.1 1.519-0.381 3.356-0.694 4.594-0.081 0.331-0.15 0.644-0.15 0.694 0 0.056 0.2 0.169 0.519 0.294 0.719 0.288 2.125 0.994 2.731 1.375 0.281 0.175 0.519 0.313 0.531 0.3 0.131-0.144 0.8-1.256 1.087-1.806 0.856-1.637 1.4-3.331 1.663-5.213 0.050-0.344 0.094-0.675 0.094-0.738 0-0.1-0.175-0.106-2.869-0.106h-2.869l-0.044 0.606zM14.344 23.194c-1.762 0.106-3.537 0.381-5.094 0.788-0.463 0.119-0.85 0.225-0.856 0.231-0.050 0.044 0.613 1.644 1.012 2.456 1.169 2.375 2.831 4.175 4.525 4.894 0.394 0.169 1.1 0.369 1.306 0.375 0.1 0 0.081-8.762-0.019-8.781-0.031-0.006-0.425 0.012-0.875 0.038zM16.725 23.169c-0.019 0.025-0.038 2.006-0.038 4.406v4.375l0.206-0.044c2.656-0.544 4.969-3.119 6.463-7.2 0.169-0.456 0.181-0.519 0.087-0.544-1.613-0.481-3.875-0.863-5.6-0.944-0.413-0.019-0.825-0.050-0.913-0.063-0.094-0.012-0.181-0.006-0.206 0.012zM24.813 24.788c-0.038 0.087-0.063 0.169-0.063 0.188s-0.144 0.387-0.313 0.819c-0.781 1.95-1.863 3.719-3.019 4.938-0.238 0.25-0.419 0.456-0.394 0.456 0.1 0 1.556-0.606 2.050-0.85 1.694-0.85 3.256-2.006 4.519-3.356 0.325-0.35 0.594-0.656 0.594-0.681 0-0.137-2.019-1.175-3.050-1.575l-0.262-0.1-0.063 0.163zM6.156 25.025c-1.063 0.462-2.344 1.163-2.344 1.275 0 0.025 0.269 0.331 0.594 0.681 1.237 1.319 2.831 2.506 4.469 3.331 0.544 0.275 1.881 0.831 1.912 0.794 0.006-0.006-0.181-0.238-0.425-0.512-0.844-0.95-1.444-1.85-2.138-3.175-0.319-0.613-0.906-1.988-1.125-2.625-0.019-0.056-0.069-0.106-0.112-0.106-0.044 0.006-0.419 0.156-0.831 0.337z"></path>
</symbol></defs></svg>