<svg xmlns="http://www.w3.org/2000/svg"><defs><symbol id="icon-close" viewBox="0 0 20 20"><path d="m10 8.6-7-7-1.5 1.3 7 7.1-7 7L3 18.6l7.1-7 7 7 1.5-1.4-7-7.1 7-7L17 1.4l-7.1 7z"/></symbol><symbol id="icon-heart" viewBox="0 0 20 20"><path d="m10 3.2-.6-.6a5.5 5.5 0 0 0-7.8 7.8l8.4 8.4 8.4-8.4a5.5 5.5 0 0 0-7.8-7.8l-.6.6z"/></symbol><symbol id="icon-film" viewBox="0 0 24 24"><path d="M16 11H8V3h8zm-8 2h8v8H8zM6 6H3V4.2l.3-.9c.2-.3.6-.3.9-.3H6zM3 8h3v3H3zm3 8H3v-3h3zm-3 2h3v3H4.2l-.9-.3c-.3-.2-.3-.6-.3-.9zm18-2h-3v-3h3zm-3 2h3v1.8l-.3.9c-.2.3-.6.3-.9.3H18zm3-12h-3V3h1.8l.9.3c.3.2.3.6.3.9zm2 1V4.2A3.2 3.2 0 0 0 19.8 1H4.2A3.2 3.2 0 0 0 1 4.2v15.6A3.2 3.2 0 0 0 4.2 23h15.6a3.2 3.2 0 0 0 3.2-3.2zm-5 1h3v3h-3z"/></symbol><symbol id="icon-search" viewBox="0 0 16 16"><path d="M15.6 15.6a1.5 1.5 0 0 1-2.2 0l-2.6-2.7A7 7 0 0 1 7 14a7 7 0 1 1 7-7 7 7 0 0 1-1 3.8l2.6 2.6a1.5 1.5 0 0 1 0 2.2zM7 2a5 5 0 1 0 0 10A5 5 0 0 0 7 2z"/></symbol><symbol xmlns="http://www.w3.org/2000/svg" xmlns:xlink="http://www.w3.org/1999/xlink" xml:space="preserve" id="linkedin" viewBox="0 0 512 512"><path fill="#1976d2" d="M0 160h114.5v352H0zm426.4 4.1-3.7-1.1-4.6-1c-6.1-1.1-12.8-2-20.6-2-66.7 0-109 48.5-123 67.3V160H160v352h114.5V320s86.5-120.5 123-32v224H512V274.5c0-53.2-36.4-97.5-85.6-110.4z"/><circle cx="56" cy="56" r="56" fill="#1976d2"/></symbol><symbol xmlns="http://www.w3.org/2000/svg" id="gmail" viewBox="0 0 100 100"><path d="M71.5 87c-3.6 0-6.5-3-6.5-6.5v-16l-9.1 6.9a6.5 6.5 0 0 1-7.8 0L39 64.6v15.9c0 3.6-3 6.5-6.5 6.5H19.9C13.3 87 8 81.7 8 75.1v-44a14.3 14.3 0 0 1 22.8-11.4l21.2 16 21.2-16A14.3 14.3 0 0 1 96 31v44c0 6.7-5.3 12-11.9 12H71.5z" opacity=".3"/><path fill="#f2f2f2" d="M69.5 85c-3.6 0-6.5-3-6.5-6.5v-16l-9.1 6.9a6.5 6.5 0 0 1-7.8 0L37 62.6v15.9c0 3.6-3 6.5-6.5 6.5H17.9C11.3 85 6 79.7 6 73.1v-44a14.3 14.3 0 0 1 22.8-11.4l21.2 16 21.2-16A14.3 14.3 0 0 1 94 29v44c0 6.7-5.3 12-11.9 12H69.5z"/><path fill="#96c362" d="m87.5 36-9 5-9 8.4v29.1h12.6c3 0 5.4-2.4 5.4-5.4V36z"/><path fill="#70bfff" d="m12.5 36 6.5 3 11.5 10.4v29.1H17.9c-3 0-5.4-2.4-5.4-5.4V36z"/><path fill="#ff7575" d="M69.6 27.1 50 41.9 30.4 27.1l-1.8 10.4 1.8 12L50 64.2l19.6-14.7 1.8-12z"/><path fill="#f4665c" d="M12.5 29v7l18 13.6V27l-5.6-4.2A7.7 7.7 0 0 0 12.5 29z"/><path fill="#ffc571" d="M87.5 29v7l-18 13.6V27l5.6-4.2A7.7 7.7 0 0 1 87.5 29z"/><path fill="#40396e" d="M82.1 80H69.5c-.8 0-1.5-.7-1.5-1.5v-26l-17.1 13c-.5.4-1.3.4-1.8 0L32 52.6v25.9c0 .8-.7 1.5-1.5 1.5H17.9C14 80 11 77 11 73.1v-44a9.2 9.2 0 0 1 14.8-7.4L50 40l24.2-18.3A9.2 9.2 0 0 1 89 29v44c0 3.8-3 6.9-6.9 6.9zM71 77h11.1c2.2 0 3.9-1.7 3.9-3.9v-44a6.2 6.2 0 0 0-10-5L51 43c-.6.4-1.4.4-2 0L24 24a6.2 6.2 0 0 0-10 5v44c0 2.2 1.7 3.9 3.9 3.9H29V49.6a1.5 1.5 0 0 1 2.4-1.2l18.6 14 18.6-14a1.5 1.5 0 0 1 2.4 1.2V77z"/></symbol><symbol xmlns="http://www.w3.org/2000/svg" id="github" viewBox="0 0 128 128"><g fill="#181616"><path fill-rule="evenodd" d="M64 1.5a42.5 42.5 0 0 0-13.5 83c2.2.3 3-1 3-2.1l-.1-8c-11.8 2.6-14.3-5-14.3-5-2-4.9-4.8-6.2-4.8-6.2-3.8-2.6.3-2.6.3-2.6 4.3.3 6.6 4.4 6.6 4.4 3.7 6.5 10 4.6 12.3 3.5a9 9 0 0 1 2.7-5.6C46.8 61.8 37 58 37 41.9c0-4.7 1.6-8.5 4.3-11.5-.4-1-1.9-5.4.4-11.2 0 0 3.6-1.2 11.7 4.3a40.8 40.8 0 0 1 21.4 0c8-5.5 11.6-4.3 11.6-4.3 2.4 5.8.9 10.1.5 11.2 2.7 3 4.3 6.8 4.3 11.4 0 16.4-10 20-19.4 21 1.5 1.3 2.9 4 2.9 7.9v11.7c0 1.1.7 2.4 2.9 2A42.5 42.5 0 0 0 64 1.5z" clip-rule="evenodd"/><path d="M37.6 62.6c-.1.2-.5.3-.8.1-.3-.1-.4-.4-.3-.6 0-.2.4-.3.7-.1.3 0 .5.4.4.6zm1.7 1.9c-.2.2-.6.1-.9-.2-.3-.3-.3-.7-.1-.9.2-.1.6 0 .9.2.2.3.3.7 0 1zm1.6 2.5c-.2.2-.6 0-.9-.4-.2-.4-.2-.8 0-1 .3-.2.7 0 1 .3.2.4.2.9 0 1zm2.4 2.3c-.3.3-.8.2-1.1-.1-.4-.4-.5-.9-.3-1.1.3-.3.8-.2 1.1.1.4.4.5.9.3 1.1zm3.1 1.4c0 .3-.5.5-1 .4-.5-.2-.8-.6-.7-1 0-.3.6-.4 1-.3.5.2.8.6.7 1zm3.5.3c0 .3-.4.6-.9.6s-.9-.3-1-.6c0-.4.5-.6 1-.7.5 0 1 .3 1 .7zm3.3-.6c0 .4-.3.7-.8.8-.5 0-1-.1-1-.5-.1-.3.2-.7.7-.8.5 0 1 .2 1 .5zm0 0"/></g><path fill="#100E0F" d="M24.9 108.3H14.2a.5.5 0 0 0-.5.5v5.2a.5.5 0 0 0 .5.5h4.1v6.5s-1 .4-3.5.4c-3 0-7.3-1.2-7.3-10.6 0-9.3 4.4-10.6 8.6-10.6 3.6 0 5.2.7 6.2 1 .3 0 .6-.3.6-.5l1.2-5a.5.5 0 0 0-.2-.5c-.4-.3-2.9-1.6-9.1-1.6-7.1 0-14.5 3-14.5 17.6 0 14.6 8.4 16.8 15.5 16.8 5.8 0 9.4-2.5 9.4-2.5l.2-.4v-16.3a.5.5 0 0 0-.5-.5zm54.6-13.5h-6a.5.5 0 0 0-.5.5V107h-9.4V95.3a.5.5 0 0 0-.5-.5h-6a.5.5 0 0 0-.5.5v31.5c0 .3.2.5.5.5h6a.5.5 0 0 0 .5-.5v-13.4H73v13.4c0 .3.2.5.5.5h6a.5.5 0 0 0 .5-.5V95.3c0-.3-.2-.5-.5-.5zm-47.2.7a3.9 3.9 0 0 0-3.8 4 4 4 0 0 0 3.8 3.9 4 4 0 0 0 4-4 4 4 0 0 0-4-3.9zm3 9.6h-6c-.3 0-.5.3-.5.6v20.8c0 .7.3.8.8.8h5.5c.5 0 .7-.2.7-.8v-20.9a.5.5 0 0 0-.5-.5zm67.6 0h-6a.5.5 0 0 0-.5.6V121s-1.5 1.2-3.6 1.2-2.8-1-2.8-3.1v-13.5a.5.5 0 0 0-.5-.5h-6a.5.5 0 0 0-.5.5v14.5c0 6.3 3.5 7.8 8.3 7.8 4 0 7-2.2 7-2.2l.3 1.3.4.3h4a.5.5 0 0 0 .4-.6v-21.1a.5.5 0 0 0-.5-.5zm16.3-.6c-3.4 0-5.7 1.5-5.7 1.5V95.3a.5.5 0 0 0-.5-.5h-6a.5.5 0 0 0-.5.5v31.5a.5.5 0 0 0 .5.5h4.2c.2 0 .3 0 .4-.2l.3-1.5s2.5 2.4 7.1 2.4c5.5 0 8.7-2.8 8.7-12.5s-5-11-8.5-11zm-2.3 17.7c-2 0-3.5-1-3.5-1v-10s1.4-.8 3-1c2.2-.1 4.3.5 4.3 5.6 0 5.5-1 6.5-3.8 6.4zm-63.7 0h-1.6c-2.3 0-3-1-3-2.3v-9H53a.5.5 0 0 0 .5-.4v-4.9a.5.5 0 0 0-.5-.5h-4.5v-6c0-.2-.1-.3-.4-.3H42c-.2 0-.3.1-.3.4v6.1l-3.3.8a.5.5 0 0 0-.4.5v3.9a.5.5 0 0 0 .5.5h3.2v9.3c0 7 4.8 7.6 8.1 7.6 1.5 0 3.3-.5 3.6-.6.2 0 .3-.2.3-.4v-4.3a.5.5 0 0 0-.5-.5z"/></symbol><symbol xmlns="http://www.w3.org/2000/svg" xmlns:xlink="http://www.w3.org/1999/xlink" xml:space="preserve" id="telegram" viewBox="0 0 512 512"><circle cx="256" cy="256" r="256" fill="#7aa5da"/><path fill="#5786b5" d="M512 250 398.2 136.7l-185 225.6 133.3 133.2a256 256 0 0 0 165.4-245.4z"/><path fill="#fff" d="M383.7 133.5c10.2-4 20.8 5 18.5 15.7L356.5 368a14.4 14.4 0 0 1-22.7 8.6l-69-50.7-35.3 36a11.7 11.7 0 0 1-19.5-4.7l-25.4-80.6-68.1-20.2c-9-2.6-9.5-15-.8-18.4l268-104.5zm-33.6 48.6c3-2.7-.5-7.3-3.8-5.2l-147 91.2a6.7 6.7 0 0 0-3 7.6l20.1 88c.4 1.4 2.4 1.2 2.5-.2l4.5-67c.2-1.7 1-3.2 2.2-4.3L350.1 182z"/><path fill="#9ec2e5" d="M346.3 176.9c3.3-2.1 6.8 2.5 3.8 5.2L225.6 292a6.6 6.6 0 0 0-2.2 4.3l-4.5 67.1c-.1 1.4-2 1.6-2.5.3l-20-88c-1-3 .3-6.1 2.8-7.7l147-91.2z"/><path fill="#fff" d="M217.2 364.7c-3.3-1.2-6-3.8-7.2-7.5l-25.4-80.6-68.1-20.2c-9-2.6-9.5-15-.8-18.4l268-104.5a13.7 13.7 0 0 1 14.5 2.9L216.3 284.8v6.5l-1-.7 1 41v32.7l.9.3z"/><path fill="#d1d1d1" d="M402.5 145.5c0 1.2 0 2.4-.3 3.7L356.5 368a14.4 14.4 0 0 1-22.7 8.6l-69-50.7-48.5-34.6v-6.5l181.9-148.4a14.4 14.4 0 0 1 2.5 3.2l.4.6.3.6.2.6.3.7a13.7 13.7 0 0 1 .6 3.4z"/><path fill="#d1d1d1" d="m264.7 326-35.2 35.9a13.9 13.9 0 0 1-1.8 1.5c-.7.5-1.4.8-2.1 1.1l-1 .4a11.7 11.7 0 0 1-5.8.2h-.1a27 27 0 0 1-1.5-.5l-.9-33v-40.3l48.4 34.6z"/><path fill="#dadde0" d="m228.6 362.7-1 .8 1-.8zm-.9.7zm-2.1 1.1zm-5.6.8z"/><path fill="#fff" d="M221.2 365.4zm-1.2-.1h.2a6.7 6.7 0 0 1-.2 0z"/><path fill="#dadde0" d="M220 365.3zm-2.5-.5 1.2.3h-.5l-.2-.2-.5-.1z"/><path fill="#fff" d="m218.2 365 .5.1h-.5zm-.7-.2.5.1-.8-.2h.3z"/><path fill="#dadde0" d="m217.5 364.8-.3-.1h.3z"/><path fill="#d1d1d1" d="m216.3 331.5.9 33.1-.9-.3v-32.8z"/><path fill="#dadde0" d="M216.3 291.3v40.2l-1-40.9z"/><path fill="#adbcc9" d="M350.1 182 225.6 292.3a6.6 6.6 0 0 0-2.2 4.2l-4.5 67.1c-.1 1.4-2 1.6-2.5.3l-20-88c-1-3 .3-6.1 2.8-7.7l147-91.2c3.4-2.1 6.9 2.5 4 5.2z"/></symbol></defs></svg>
