<svg  xmlns="http://www.w3.org/2000/svg"><defs><symbol id="icon-close" viewBox="0 0 20 20"><path d="M10 8.586 2.929 1.515 1.515 2.929 8.586 10l-7.071 7.071 1.414 1.414L10 11.414l7.071 7.071 1.414-1.414L11.414 10l7.071-7.071-1.414-1.414L10 8.586z"/></symbol><symbol id="icon-heart" viewBox="0 0 20 20"><path d="m10 3.22-.61-.6a5.5 5.5 0 0 0-7.778 7.772l-.002-.003 8.39 8.39 8.39-8.4a5.5 5.5 0 0 0-7.783-7.768l.003-.002-.61.61z"/></symbol><symbol id="icon-film" viewBox="0 0 24 24"><path d="M16 11H8V3h8zm-8 2h8v8H8zM6 6H3V4.18c0-.326.131-.62.346-.834S3.854 3 4.18 3H6zM3 8h3v3H3zm3 8H3v-3h3zm-3 2h3v3H4.18c-.326 0-.62-.131-.834-.346S3 20.146 3 19.82zm18-2h-3v-3h3zm-3 2h3v1.82c0 .326-.131.62-.346.834s-.508.346-.834.346H18zm3-12h-3V3h1.82c.326 0 .62.131.834.346s.346.508.346.834zm2 1V4.18A3.176 3.176 0 0 0 19.82 1H4.18A3.176 3.176 0 0 0 1 4.18v15.64A3.176 3.176 0 0 0 4.18 23h15.64A3.176 3.176 0 0 0 23 19.82zm-5 1h3v3h-3z"/></symbol><symbol id="icon-search" viewBox="0 0 16 16"><path d="M15.56 15.56a1.502 1.502 0 0 1-2.125 0l-2.652-2.652a6.96 6.96 0 0 1-3.771 1.116 7.012 7.012 0 1 1 7.012-7.012c0 1.391-.417 2.68-1.116 3.771l2.652 2.652a1.502 1.502 0 0 1 0 2.125zM7.012 2.003a5.009 5.009 0 1 0 0 10.018 5.009 5.009 0 0 0 0-10.018z"/></symbol></defs>
<symbol version="1.1" id="linkedin" xmlns="http://www.w3.org/2000/svg" xmlns:xlink="http://www.w3.org/1999/xlink" x="0px" y="0px"
	 viewBox="0 0 512 512" style="enable-background:new 0 0 512 512;" xml:space="preserve">
	 <g>
	<rect y="160" style="fill:#1976D2;" width="114.496" height="352"/>
	<path style="fill:#1976D2;" d="M426.368,164.128c-1.216-0.384-2.368-0.8-3.648-1.152c-1.536-0.352-3.072-0.64-4.64-0.896
		c-6.08-1.216-12.736-2.08-20.544-2.08l0,0l0,0c-66.752,0-109.088,48.544-123.04,67.296V160H160v352h114.496V320
		c0,0,86.528-120.512,123.04-32c0,79.008,0,224,0,224H512V274.464C512,221.28,475.552,176.96,426.368,164.128z"/>
	<circle style="fill:#1976D2;" cx="56" cy="56" r="56"/>
</g>
<g>
</g>
<g>
</g>
<g>
</g>
<g>
</g>
<g>
</g>
<g>
</g>
<g>
</g>
<g>
</g>
<g>
</g>
<g>
</g>
<g>
</g>
<g>
</g>
<g>
</g>
<g>
</g>
<g>
</g>
	 </symbol>

<symbol xmlns="http://www.w3.org/2000/svg" id="gmail" viewBox="0 0 100 100">
<path d="M71.5,87c-3.584,0-6.5-2.916-6.5-6.5V64.571l-9.1,6.825c-1.119,0.839-2.504,1.3-3.9,1.3s-2.781-0.461-3.898-1.298 L39,64.571V80.5c0,3.584-2.916,6.5-6.5,6.5H19.857C13.319,87,8,81.681,8,75.143v-44.09c0-7.85,6.387-14.236,14.236-14.236 c3.059,0,6.092,1.011,8.539,2.846L52,35.723L73.2,19.68c2.471-1.852,5.505-2.863,8.563-2.863c7.85,0,14.236,6.386,14.236,14.236 v44.09C96,81.681,90.681,87,84.143,87H71.5z" opacity=".35"/><path fill="#f2f2f2" d="M69.5,85c-3.584,0-6.5-2.916-6.5-6.5V62.571l-9.1,6.825c-1.119,0.839-2.504,1.3-3.9,1.3 s-2.781-0.461-3.898-1.298L37,62.571V78.5c0,3.584-2.916,6.5-6.5,6.5H17.857C11.319,85,6,79.681,6,73.143v-44.09 c0-7.85,6.387-14.236,14.236-14.236c3.059,0,6.092,1.011,8.539,2.846L50,33.723L71.2,17.68c2.471-1.852,5.505-2.863,8.563-2.863 c7.85,0,14.236,6.386,14.236,14.236v44.09C94,79.681,88.681,85,82.143,85H69.5z"/><path fill="#96c362" d="M87.5,36l-9,4.911l-9,8.482V78.5h12.643c2.959,0,5.357-2.398,5.357-5.357V36z"/><path fill="#70bfff" d="M12.5,36l6.505,3.054L30.5,49.393V78.5H17.857c-2.959,0-5.357-2.398-5.357-5.357V36z"/><polygon fill="#ff7575" points="69.643,27.143 50,41.875 30.357,27.143 28.571,37.5 30.357,49.464 50,64.196 69.643,49.464 71.429,37.5"/><path fill="#f4665c" d="M12.5,29.053v7.024l18,13.5v-22.5l-5.623-4.214c-1.339-1.004-2.966-1.546-4.64-1.546l0,0 C15.963,21.316,12.5,24.78,12.5,29.053z"/><path fill="#ffc571" d="M87.5,29.053v7.024l-18,13.5v-22.5l5.623-4.214c1.339-1.004,2.966-1.546,4.64-1.546l0,0 C84.037,21.316,87.5,24.78,87.5,29.053z"/><path fill="#40396e" d="M82.143,80H69.5c-0.828,0-1.5-0.671-1.5-1.5V52.571L50.9,65.396c-0.533,0.399-1.268,0.399-1.801,0 L32,52.571V78.5c0,0.829-0.672,1.5-1.5,1.5H17.857C14.076,80,11,76.924,11,73.143v-44.09c0-5.093,4.144-9.236,9.236-9.236 c1.984,0,3.952,0.656,5.54,1.846L50,39.994l24.218-18.327c1.594-1.194,3.562-1.85,5.546-1.85c5.093,0,9.236,4.144,9.236,9.236 v44.09C89,76.924,85.924,80,82.143,80z M71,77h11.143C84.27,77,86,75.27,86,73.143v-44.09c0-3.438-2.798-6.236-6.236-6.236 c-1.34,0-2.669,0.443-3.741,1.247L50.905,43.071c-0.535,0.405-1.275,0.405-1.811,0L23.972,24.059 c-1.066-0.8-2.396-1.243-3.735-1.243c-3.438,0-6.236,2.798-6.236,6.236v44.09C14,75.27,15.73,77,17.857,77H29V49.571 c0-0.568,0.321-1.087,0.829-1.342c0.508-0.253,1.117-0.199,1.571,0.142L50,62.321l18.6-13.95c0.454-0.341,1.063-0.396,1.571-0.142 C70.679,48.484,71,49.003,71,49.571V77z"/>
</symbol>

<symbol xmlns="http://www.w3.org/2000/svg" id="github" viewBox="0 0 128 128">
<g fill="#181616"><path fill-rule="evenodd" d="M64 1.512c-23.493 0-42.545 19.047-42.545 42.545 0 18.797 12.19 34.745 29.095 40.37 2.126.394 2.907-.923 2.907-2.047 0-1.014-.04-4.366-.058-7.92-11.837 2.573-14.334-5.02-14.334-5.02-1.935-4.918-4.724-6.226-4.724-6.226-3.86-2.64.29-2.586.29-2.586 4.273.3 6.523 4.385 6.523 4.385 3.794 6.504 9.953 4.623 12.38 3.536.383-2.75 1.485-4.628 2.702-5.69-9.45-1.075-19.384-4.724-19.384-21.026 0-4.645 1.662-8.44 4.384-11.42-.442-1.072-1.898-5.4.412-11.26 0 0 3.572-1.142 11.7 4.363 3.395-.943 7.035-1.416 10.65-1.432 3.616.017 7.258.49 10.658 1.432 8.12-5.504 11.688-4.362 11.688-4.362 2.316 5.86.86 10.187.418 11.26 2.728 2.978 4.378 6.774 4.378 11.42 0 16.34-9.953 19.938-19.427 20.99 1.526 1.32 2.886 3.91 2.886 7.88 0 5.692-.048 10.273-.048 11.674 0 1.13.766 2.458 2.922 2.04 16.896-5.632 29.07-21.574 29.07-40.365C106.545 20.56 87.497 1.512 64 1.512z" clip-rule="evenodd"/><path d="M37.57 62.596c-.095.212-.428.275-.73.13-.31-.14-.482-.427-.382-.64.09-.216.424-.277.733-.132.31.14.486.43.38.642zm-.524-.388M39.293 64.52c-.203.187-.6.1-.87-.198-.278-.297-.33-.694-.124-.884.208-.188.593-.1.87.197.28.3.335.693.123.884zm-.406-.437M40.97 66.968c-.26.182-.687.012-.95-.367-.262-.377-.262-.83.005-1.013.264-.182.684-.018.95.357.262.385.262.84-.005 1.024zm0 0M43.268 69.336c-.233.257-.73.188-1.093-.163-.372-.343-.475-.83-.242-1.087.237-.257.736-.185 1.102.163.37.342.482.83.233 1.086zm0 0M46.44 70.71c-.104.334-.582.485-1.064.344-.482-.146-.796-.536-.7-.872.1-.336.582-.493 1.067-.342.48.144.795.53.696.87zm0 0M49.92 70.965c.013.35-.396.642-.902.648-.508.012-.92-.272-.926-.618 0-.354.4-.642.908-.65.506-.01.92.272.92.62zm0 0M53.16 70.414c.06.342-.29.694-.793.787-.494.092-.95-.12-1.014-.46-.06-.35.297-.7.79-.792.503-.088.953.118 1.017.466zm0 0"/></g><path fill="#100E0F" d="M24.855 108.302h-10.7a.5.5 0 0 0-.5.5v5.232a.5.5 0 0 0 .5.5h4.173v6.5s-.937.32-3.53.32c-3.056 0-7.327-1.116-7.327-10.508 0-9.393 4.448-10.63 8.624-10.63 3.614 0 5.17.636 6.162.943.31.094.6-.216.6-.492l1.193-5.055a.468.468 0 0 0-.192-.39c-.403-.288-2.857-1.66-9.058-1.66-7.144 0-14.472 3.038-14.472 17.65 0 14.61 8.39 16.787 15.46 16.787 5.854 0 9.405-2.502 9.405-2.502.146-.08.162-.285.162-.38v-16.316a.5.5 0 0 0-.5-.5zM79.506 94.81H73.48a.5.5 0 0 0-.498.503l.002 11.644h-9.392V95.313a.5.5 0 0 0-.497-.503H57.07a.5.5 0 0 0-.498.503v31.53c0 .277.224.503.498.503h6.025a.5.5 0 0 0 .497-.504v-13.486h9.392l-.016 13.486c0 .278.224.504.5.504h6.038a.5.5 0 0 0 .497-.504v-31.53c0-.278-.22-.502-.497-.502zM32.34 95.527c-2.144 0-3.884 1.753-3.884 3.923 0 2.167 1.74 3.925 3.884 3.925 2.146 0 3.885-1.758 3.885-3.925 0-2.17-1.74-3.923-3.885-3.923zM35.296 105.135H29.29c-.276 0-.522.284-.522.56v20.852c0 .613.382.795.876.795h5.41c.595 0 .74-.292.74-.805v-6.346-14.553a.5.5 0 0 0-.498-.502zM102.902 105.182h-5.98a.5.5 0 0 0-.496.504v15.46s-1.52 1.11-3.675 1.11-2.727-.977-2.727-3.088v-13.482a.5.5 0 0 0-.497-.504h-6.068a.502.502 0 0 0-.498.504v14.502c0 6.27 3.495 7.804 8.302 7.804 3.944 0 7.124-2.18 7.124-2.18s.15 1.15.22 1.285c.07.136.247.273.44.273l3.86-.017a.502.502 0 0 0 .5-.504l-.003-21.166a.504.504 0 0 0-.5-.502zM119.244 104.474c-3.396 0-5.706 1.515-5.706 1.515V95.312a.5.5 0 0 0-.497-.503H107a.5.5 0 0 0-.5.503v31.53a.5.5 0 0 0 .5.503h4.192c.19 0 .332-.097.437-.268.103-.17.254-1.454.254-1.454s2.47 2.34 7.148 2.34c5.49 0 8.64-2.784 8.64-12.502s-5.03-10.988-8.428-10.988zm-2.36 17.764c-2.073-.063-3.48-1.004-3.48-1.004v-9.985s1.388-.85 3.09-1.004c2.153-.193 4.228.458 4.228 5.594 0 5.417-.935 6.486-3.837 6.398zM53.195 122.12c-.263 0-.937.107-1.63.107-2.22 0-2.973-1.032-2.973-2.368v-8.866h4.52a.5.5 0 0 0 .5-.504v-4.856a.5.5 0 0 0-.5-.502h-4.52l-.007-5.97c0-.227-.116-.34-.378-.34h-6.16c-.238 0-.367.106-.367.335v6.17s-3.087.745-3.295.805a.5.5 0 0 0-.36.48v3.877a.5.5 0 0 0 .497.503h3.158v9.328c0 6.93 4.86 7.61 8.14 7.61 1.497 0 3.29-.48 3.586-.59.18-.067.283-.252.283-.453l.004-4.265a.51.51 0 0 0-.5-.502z"/>
</symbol>

<symbol id="telegram" xmlns="http://www.w3.org/2000/svg" xmlns:xlink="http://www.w3.org/1999/xlink" x="0px" y="0px"
	 viewBox="0 0 512 512" style="enable-background:new 0 0 512 512;" xml:space="preserve">
   <circle style="fill:#7AA5DA;" cx="256" cy="256" r="256"/>
<path style="fill:#5786B5;" d="M511.924,250.077L398.283,136.625l-185.108,225.63l133.284,133.284
	C443.197,458.988,512,365.535,512,256C512,254.019,511.969,252.045,511.924,250.077z"/>
<path style="fill:#FFFFFF;" d="M383.717,133.52c10.206-3.982,20.756,4.948,18.515,15.67l-45.77,218.781
	c-2.138,10.257-14.188,14.877-22.635,8.671l-69.094-50.717l-35.219,35.961c-6.189,6.31-16.86,3.741-19.515-4.672l-25.41-80.662
	l-68.112-20.118c-8.947-2.638-9.464-15.084-0.793-18.48L383.717,133.52z M350.118,182.065c2.982-2.638-0.483-7.292-3.862-5.189
	l-147.015,91.177c-2.586,1.603-3.775,4.758-2.862,7.671l20.049,88.04c0.397,1.345,2.327,1.155,2.5-0.241l4.482-67.094
	c0.172-1.655,0.965-3.172,2.207-4.275L350.118,182.065z"/>
<path style="fill:#9EC2E5;" d="M346.257,176.876c3.379-2.103,6.844,2.551,3.862,5.189l-124.5,110.089
	c-1.241,1.103-2.034,2.62-2.207,4.275l-4.482,67.094c-0.172,1.396-2.103,1.586-2.5,0.241l-20.049-88.04
	c-0.914-2.913,0.276-6.068,2.862-7.671L346.257,176.876z"/>
<path style="fill:#FFFFFF;" d="M217.154,364.678c-3.241-1.155-5.982-3.741-7.154-7.465l-25.41-80.662l-68.112-20.118
	c-8.947-2.638-9.464-15.084-0.793-18.48L383.717,133.52c6.585-2.569,13.326,0.241,16.653,5.448
	c-0.621-0.948-1.362-1.827-2.189-2.603L216.343,284.81v6.499l-1-0.724l1,40.926v32.823c0.259,0.121,0.534,0.224,0.81,0.31V364.678
	L217.154,364.678z"/>
<g>
	<path style="fill:#D1D1D1;" d="M402.525,145.518c0.052,1.172-0.034,2.413-0.293,3.672l-45.77,218.781
		c-2.138,10.257-14.188,14.877-22.635,8.671l-69.094-50.717l-48.39-34.616v-6.499l181.838-148.446
		c0.827,0.776,1.569,1.655,2.189,2.603c0.121,0.207,0.241,0.396,0.362,0.586c0.103,0.207,0.224,0.414,0.328,0.603
		c0.103,0.207,0.207,0.414,0.293,0.621c0.103,0.224,0.19,0.431,0.276,0.655c0.069,0.19,0.155,0.396,0.224,0.621
		c0.224,0.672,0.396,1.362,0.517,2.086C402.439,144.587,402.491,145.036,402.525,145.518z"/>
	<path style="fill:#D1D1D1;" d="M264.733,325.925l-35.219,35.961c-0.293,0.293-0.603,0.586-0.914,0.845
		c-0.31,0.259-0.621,0.483-0.948,0.707c-0.017,0.017-0.017,0.017-0.017,0.017c-0.655,0.431-1.327,0.793-2.034,1.086
		c-0.362,0.138-0.707,0.276-1.069,0.362c-1.5,0.448-3.034,0.569-4.551,0.414c-0.396-0.034-0.793-0.103-1.172-0.172
		c-0.052,0-0.103-0.017-0.155-0.034c-0.379-0.103-0.759-0.207-1.138-0.328c-0.121-0.034-0.241-0.069-0.362-0.138l-0.81-33.133
		v-40.202L264.733,325.925z"/>
</g>
<g>
	<path style="fill:#DADDE0;" d="M228.6,362.73c-0.31,0.259-0.621,0.5-0.948,0.724v-0.017
		C227.98,363.213,228.29,362.989,228.6,362.73z"/>
	<path style="fill:#DADDE0;" d="M227.652,363.437v0.017c0,0,0-0.017-0.017,0C227.635,363.454,227.635,363.454,227.652,363.437z"/>
	<path style="fill:#DADDE0;" d="M225.601,364.541c0.707-0.293,1.379-0.655,2.034-1.086
		C226.98,363.885,226.29,364.247,225.601,364.541z"/>
	<path style="fill:#DADDE0;" d="M219.981,365.316c1.517,0.155,3.051,0.034,4.551-0.414c-1.086,0.345-2.207,0.5-3.327,0.5
		c-0.345,0-0.69-0.017-1.017-0.052C220.119,365.351,220.05,365.351,219.981,365.316z"/>
</g>
<g>
	<path style="fill:#FFFFFF;" d="M221.205,365.402c-0.345,0-0.69-0.017-1.017-0.052C220.515,365.385,220.86,365.402,221.205,365.402z
		"/>
	<path style="fill:#FFFFFF;" d="M219.981,365.316c0.069,0.034,0.138,0.034,0.207,0.034c-0.362-0.017-0.69-0.069-1.034-0.138
		C219.429,365.265,219.705,365.299,219.981,365.316z"/>
</g>
<g>
	<path style="fill:#DADDE0;" d="M219.981,365.316c-0.276-0.017-0.552-0.052-0.827-0.103c-0.121-0.017-0.241-0.034-0.345-0.069
		C219.188,365.213,219.584,365.282,219.981,365.316z"/>
	<path style="fill:#DADDE0;" d="M217.516,364.782c0.379,0.121,0.759,0.224,1.138,0.328c-0.155-0.034-0.31-0.069-0.465-0.103
		c-0.069-0.017-0.138-0.034-0.19-0.069C217.843,364.903,217.671,364.851,217.516,364.782z"/>
</g>
<g>
	<path style="fill:#FFFFFF;" d="M218.188,365.006c0.155,0.034,0.31,0.069,0.465,0.103
		C218.498,365.092,218.343,365.058,218.188,365.006z"/>
	<path style="fill:#FFFFFF;" d="M217.516,364.782c0.155,0.069,0.328,0.121,0.483,0.155c-0.259-0.052-0.517-0.138-0.776-0.241
		C217.326,364.73,217.412,364.765,217.516,364.782z"/>
</g>
<path style="fill:#DADDE0;" d="M217.516,364.782c-0.103-0.017-0.19-0.052-0.293-0.086c-0.017,0.017-0.052,0-0.069-0.017v-0.034
	C217.274,364.713,217.395,364.747,217.516,364.782z"/>
<path style="fill:#D1D1D1;" d="M216.343,331.511l0.81,33.133c-0.276-0.086-0.552-0.19-0.81-0.31V331.511z"/>
<polygon style="fill:#DADDE0;" points="216.343,291.309 216.343,331.511 215.343,290.585 "/>
<path style="fill:#ADBCC9;" d="M350.118,182.065l-124.5,110.089c-1.241,1.103-2.034,2.62-2.207,4.275l-4.474,67.1
	c-0.172,1.396-2.103,1.586-2.517,0.241l-20.04-88.045c-0.914-2.913,0.276-6.068,2.862-7.671l147.015-91.177
	C349.636,174.773,353.101,179.428,350.118,182.065z"/>
<g>
</g>
<g>
</g>
<g>
</g>
<g>
</g>
<g>
</g>
<g>
</g>
<g>
</g>
<g>
</g>
<g>
</g>
<g>
</g>
<g>
</g>
<g>
</g>
<g>
</g>
<g>
</g>
<g>
</g>
</symbol>
</svg>