<svg  xmlns="http://www.w3.org/2000/svg"><defs><symbol id="icon-close" viewBox="0 0 20 20"><path d="M10 8.586 2.929 1.515 1.515 2.929 8.586 10l-7.071 7.071 1.414 1.414L10 11.414l7.071 7.071 1.414-1.414L11.414 10l7.071-7.071-1.414-1.414L10 8.586z"/></symbol><symbol id="icon-heart" viewBox="0 0 20 20"><path d="m10 3.22-.61-.6a5.5 5.5 0 0 0-7.778 7.772l-.002-.003 8.39 8.39 8.39-8.4a5.5 5.5 0 0 0-7.783-7.768l.003-.002-.61.61z"/></symbol><symbol id="icon-film" viewBox="0 0 24 24"><path d="M16 11H8V3h8zm-8 2h8v8H8zM6 6H3V4.18c0-.326.131-.62.346-.834S3.854 3 4.18 3H6zM3 8h3v3H3zm3 8H3v-3h3zm-3 2h3v3H4.18c-.326 0-.62-.131-.834-.346S3 20.146 3 19.82zm18-2h-3v-3h3zm-3 2h3v1.82c0 .326-.131.62-.346.834s-.508.346-.834.346H18zm3-12h-3V3h1.82c.326 0 .62.131.834.346s.346.508.346.834zm2 1V4.18A3.176 3.176 0 0 0 19.82 1H4.18A3.176 3.176 0 0 0 1 4.18v15.64A3.176 3.176 0 0 0 4.18 23h15.64A3.176 3.176 0 0 0 23 19.82zm-5 1h3v3h-3z"/></symbol><symbol id="icon-search" viewBox="0 0 16 16"><path d="M15.56 15.56a1.502 1.502 0 0 1-2.125 0l-2.652-2.652a6.96 6.96 0 0 1-3.771 1.116 7.012 7.012 0 1 1 7.012-7.012c0 1.391-.417 2.68-1.116 3.771l2.652 2.652a1.502 1.502 0 0 1 0 2.125zM7.012 2.003a5.009 5.009 0 1 0 0 10.018 5.009 5.009 0 0 0 0-10.018z"/></symbol><symbol id="icon-anchor" viewBox="0 0 32 32"><path d="M15.613 7.544c-0.155 0.075-8.584 8.512-8.64 8.648-0.048 0.117-0.051 0.235-0.011 0.381 0.024 0.085 0.131 0.211 0.568 0.648 0.293 0.299 0.581 0.565 0.635 0.595 0.123 0.064 0.363 0.067 0.483 0.008 0.048-0.024 1.685-1.64 3.637-3.592l3.555-3.552 3.552 3.552c2.523 2.523 3.584 3.565 3.653 3.595 0.128 0.053 0.347 0.051 0.456-0.003 0.117-0.059 1.131-1.067 1.195-1.189 0.061-0.12 0.067-0.331 0.011-0.469-0.029-0.069-1.256-1.312-4.235-4.293-2.307-2.309-4.245-4.235-4.312-4.28-0.155-0.107-0.381-0.128-0.547-0.048z"></path><path d="M15.613 14.397c-0.075 0.035-1.403 1.349-4.365 4.312-4.509 4.517-4.315 4.312-4.315 4.544 0 0.205 0.045 0.264 0.597 0.821 0.64 0.648 0.739 0.709 1.024 0.643 0.12-0.029 0.309-0.213 3.707-3.608l3.579-3.576 3.555 3.552c1.952 1.952 3.589 3.568 3.632 3.589 0.136 0.067 0.259 0.075 0.411 0.029 0.128-0.037 0.189-0.088 0.621-0.512 0.603-0.595 0.669-0.68 0.683-0.899 0.008-0.131 0-0.189-0.048-0.283-0.088-0.179-8.448-8.536-8.613-8.608-0.149-0.069-0.328-0.069-0.467-0.005z"></path><path d="M13.232 22.699c0.008 1.205 0.008 1.208 0.072 1.368 0.088 0.219 0.331 0.461 0.549 0.549 0.139 0.053 0.205 0.061 0.507 0.061 0.296 0 0.368-0.008 0.493-0.059 0.296-0.117 0.477-0.304 0.595-0.613 0.053-0.147 0.056-0.2 0.067-1.333l0.008-1.179h-0.589v1.061c0 1.165-0.011 1.261-0.152 1.397-0.203 0.195-0.616 0.208-0.816 0.027-0.136-0.123-0.139-0.128-0.152-1.339l-0.013-1.133-0.576-0.016 0.008 1.208zM16.16 23.080v1.587h0.587v-1.227h0.421c0.456 0 0.621-0.029 0.816-0.144 0.317-0.187 0.488-0.584 0.421-0.989-0.072-0.443-0.349-0.712-0.805-0.784-0.096-0.016-0.459-0.029-0.805-0.029h-0.635v1.587zM17.616 22.123c0.091 0.043 0.197 0.216 0.197 0.323 0 0.128-0.040 0.232-0.12 0.317l-0.085 0.091h-0.861v-0.773h0.389c0.301 0 0.411 0.011 0.48 0.043z"></path></symbol></defs></svg>