<svg aria-hidden="true" style="position:absolute;width:0;height:0;overflow:hidden" xmlns="http://www.w3.org/2000/svg"><defs><symbol id="icon-close" viewBox="0 0 20 20"><path d="M10 8.586 2.929 1.515 1.515 2.929 8.586 10l-7.071 7.071 1.414 1.414L10 11.414l7.071 7.071 1.414-1.414L11.414 10l7.071-7.071-1.414-1.414L10 8.586z"/></symbol><symbol id="icon-heart" viewBox="0 0 20 20"><path d="m10 3.22-.61-.6a5.5 5.5 0 0 0-7.778 7.772l-.002-.003 8.39 8.39 8.39-8.4a5.5 5.5 0 0 0-7.783-7.768l.003-.002-.61.61z"/></symbol><symbol id="icon-film" viewBox="0 0 24 24"><path d="M16 11H8V3h8zm-8 2h8v8H8zM6 6H3V4.18c0-.326.131-.62.346-.834S3.854 3 4.18 3H6zM3 8h3v3H3zm3 8H3v-3h3zm-3 2h3v3H4.18c-.326 0-.62-.131-.834-.346S3 20.146 3 19.82zm18-2h-3v-3h3zm-3 2h3v1.82c0 .326-.131.62-.346.834s-.508.346-.834.346H18zm3-12h-3V3h1.82c.326 0 .62.131.834.346s.346.508.346.834zm2 1V4.18A3.176 3.176 0 0 0 19.82 1H4.18A3.176 3.176 0 0 0 1 4.18v15.64A3.176 3.176 0 0 0 4.18 23h15.64A3.176 3.176 0 0 0 23 19.82zm-5 1h3v3h-3z"/></symbol></defs></svg>