<?xml version="1.0" standalone="no"?>
<!DOCTYPE svg PUBLIC "-//W3C//DTD SVG 20010904//EN"
 "http://www.w3.org/TR/2001/REC-SVG-20010904/DTD/svg10.dtd">
<svg version="1.0" xmlns="http://www.w3.org/2000/svg"
 width="264.000000pt" height="264.000000pt" viewBox="0 0 264.000000 264.000000"
 preserveAspectRatio="xMidYMid meet">
<metadata>
Created by potrace 1.14, written by Peter Selinger 2001-2017
</metadata>
<g transform="translate(0.000000,264.000000) scale(0.100000,-0.100000)"
fill="#000000" stroke="none">
<path d="M310 2633 c-8 -3 -17 -9 -20 -12 -3 -3 -28 -17 -57 -30 -47 -22 -180
-141 -158 -141 6 0 6 -3 0 -8 -5 -4 -19 -23 -30 -42 -20 -34 -20 -56 -23
-1082 -1 -637 1 -1048 7 -1048 5 0 7 -9 4 -20 -3 -12 0 -20 6 -20 7 0 9 -4 6
-10 -3 -5 -2 -10 3 -10 6 0 13 -11 16 -25 4 -14 11 -25 16 -25 6 0 10 -5 10
-11 0 -20 62 -73 115 -99 28 -14 53 -29 56 -34 4 -5 12 -5 18 -2 6 4 11 2 11
-3 0 -8 317 -11 1048 -11 932 0 1050 2 1070 16 12 8 22 13 22 9 0 -11 147 140
153 158 3 9 10 17 15 17 5 0 10 6 12 13 2 6 5 501 7 1099 2 863 1 1089 -9
1100 -19 20 -58 76 -58 83 0 8 -47 55 -56 55 -3 0 -19 9 -35 21 -16 11 -29 17
-29 12 0 -4 -4 -3 -8 2 -8 12 -64 39 -74 37 -5 -1 -8 2 -8 8 0 11 -2002 13
-2030 3z m289 -438 l-1 -175 -174 0 -174 0 0 132 c0 120 2 135 22 164 13 18
32 37 43 43 11 5 80 10 152 10 l133 1 -1 -175z m1197 -287 l-1 -463 -467 -2
c-351 -1 -468 2 -469 10 -4 32 -5 903 -2 910 2 4 215 7 472 7 l468 0 -1 -462z
m555 423 l39 -39 0 -136 0 -136 -172 2 -173 3 -2 173 -3 172 136 0 136 0 39
-39z m-1794 -540 l41 -1 0 -174 0 -174 -174 0 -174 0 0 173 0 174 33 3 c17 2
77 2 132 1 55 -1 119 -2 142 -2z m1816 0 c15 -1 17 -16 17 -175 l0 -174 -172
1 -173 2 -2 172 -1 172 56 3 c46 2 177 2 275 -1z m-1776 -768 l2 -173 -47 -1
c-49 0 -213 0 -269 1 l-33 0 0 174 0 175 173 -2 172 -2 2 -172z m1200 -303 l0
-476 -471 0 -471 1 -1 470 c0 259 1 473 3 476 1 4 213 6 471 6 l469 0 0 -477z
m593 304 c0 -174 0 -174 -22 -175 -26 0 -283 0 -310 1 -16 0 -18 15 -17 174
l2 174 173 0 174 0 0 -174z m-1807 -433 c16 -1 17 -16 16 -175 l-2 -174 -121
2 c-114 1 -124 3 -153 26 -65 53 -73 75 -73 201 0 64 2 118 4 120 4 3 268 3
329 0z m1794 0 c15 -1 23 -244 8 -258 -5 -6 -17 -20 -25 -32 -8 -11 -20 -21
-27 -21 -6 0 -17 -8 -22 -17 -6 -10 -11 -14 -11 -10 0 5 -6 5 -12 0 -7 -4 -66
-8 -130 -9 l-117 0 0 170 c0 94 4 173 9 176 6 4 267 5 327 1z"/>
</g>
</svg>
